<svg xmlns="http://www.w3.org/2000/svg" viewBox="0 0 64 64">
  <defs>
    <linearGradient id="bgGradient" x1="0%" y1="0%" x2="100%" y2="100%">
      <stop offset="0%" style="stop-color:#000000;stop-opacity:1" />
      <stop offset="100%" style="stop-color:#1a1a1a;stop-opacity:1" />
    </linearGradient>
    <linearGradient id="accentGradient" x1="0%" y1="0%" x2="100%" y2="100%">
      <stop offset="0%" style="stop-color:#FF8040;stop-opacity:1" />
      <stop offset="100%" style="stop-color:#FF6B35;stop-opacity:1" />
    </linearGradient>
    <filter id="glow">
      <feGaussianBlur stdDeviation="1.5" result="coloredBlur"/>
      <feMerge> 
        <feMergeNode in="coloredBlur"/>
        <feMergeNode in="SourceGraphic"/>
      </feMerge>
    </filter>
  </defs>
  
  <!-- Background -->
  <rect width="64" height="64" rx="14" fill="url(#bgGradient)"/>
  
  <!-- Geometric background elements -->
  <rect x="8" y="8" width="8" height="8" fill="#FF8040" opacity="0.1" rx="2"/>
  <rect x="48" y="48" width="8" height="8" fill="#FF8040" opacity="0.1" rx="2"/>
  
  <!-- Main logo -->
  <g transform="translate(32, 32)">
    <!-- I letter -->
    <rect x="-10" y="-14" width="5" height="28" rx="2.5" fill="url(#accentGradient)" filter="url(#glow)"/>
    
    <!-- & symbol (stylized) -->
    <path d="M 8 -10 Q 18 -10 18 -2 Q 18 6 8 6 Q -2 6 -2 -2 Q -2 -10 8 -10 M 8 6 Q 18 6 18 14 Q 18 22 8 22" 
          fill="none" 
          stroke="url(#accentGradient)" 
          stroke-width="3" 
          stroke-linecap="round"
          filter="url(#glow)"/>
    
    <!-- S letter -->
    <path d="M 22 -8 Q 30 -8 30 -2 Q 30 4 22 4 Q 14 4 14 10 Q 14 16 22 16" 
          fill="none" 
          stroke="url(#accentGradient)" 
          stroke-width="3" 
          stroke-linecap="round"
          filter="url(#glow)"/>
  </g>
  
  <!-- Floating accent elements -->
  <circle cx="16" cy="16" r="2" fill="#FF8040" opacity="0.6"/>
  <circle cx="48" cy="48" r="2" fill="#FF8040" opacity="0.6"/>
  <circle cx="48" cy="16" r="1.5" fill="#FF8040" opacity="0.4"/>
  <circle cx="16" cy="48" r="1.5" fill="#FF8040" opacity="0.4"/>
</svg> 